<svg width="100%" height="100%" viewBox="0 0 20 20" version="1.1" xmlns="http://www.w3.org/2000/svg" style="fill-rule:evenodd;clip-rule:evenodd;stroke-linejoin:round;stroke-miterlimit:2;">
    <g transform="matrix(0.239808,0,0,0.239808,1.26597e-15,0)">
        <path d="M41.753,0C30.415,0 28.992,0.049 24.539,0.252C20.094,0.456 17.06,1.159 14.405,2.192C11.659,3.258 9.33,4.685 7.01,7.006C4.687,9.327 3.261,11.656 2.191,14.401C1.156,17.056 0.452,20.091 0.251,24.534C0.052,28.987 0,30.412 0,41.75C0,53.088 0.051,54.507 0.252,58.961C0.457,63.405 1.16,66.439 2.192,69.093C3.259,71.839 4.686,74.169 7.007,76.489C9.327,78.812 11.656,80.242 14.4,81.308C17.056,82.34 20.091,83.044 24.535,83.248C28.988,83.45 30.41,83.5 41.748,83.5C53.088,83.5 54.506,83.45 58.959,83.248C63.404,83.044 66.442,82.34 69.098,81.308C71.843,80.242 74.169,78.812 76.488,76.489C78.811,74.169 80.237,71.839 81.307,69.094C82.333,66.439 83.038,63.404 83.247,58.961C83.447,54.508 83.499,53.088 83.499,41.75C83.499,30.412 83.447,28.988 83.247,24.535C83.038,20.09 82.333,17.056 81.307,14.402C80.237,11.656 78.811,9.327 76.488,7.006C74.166,4.684 71.844,3.257 69.095,2.192C66.434,1.159 63.398,0.456 58.953,0.252C54.5,0.049 53.082,0 41.74,0L41.753,0ZM38.008,7.524C39.119,7.522 40.36,7.524 41.753,7.524C52.9,7.524 54.222,7.564 58.624,7.764C62.694,7.95 64.904,8.63 66.375,9.201C68.324,9.958 69.713,10.863 71.173,12.324C72.635,13.785 73.539,15.177 74.297,17.125C74.869,18.595 75.55,20.804 75.735,24.875C75.935,29.276 75.979,30.598 75.979,41.74C75.979,52.882 75.935,54.204 75.735,58.606C75.549,62.676 74.869,64.885 74.297,66.355C73.541,68.304 72.635,69.691 71.173,71.151C69.712,72.613 68.325,73.517 66.375,74.274C64.906,74.848 62.694,75.527 58.624,75.713C54.222,75.912 52.9,75.956 41.753,75.956C30.605,75.956 29.284,75.912 24.883,75.713C20.813,75.525 18.603,74.845 17.13,74.273C15.182,73.516 13.79,72.611 12.329,71.15C10.868,69.689 9.963,68.301 9.205,66.352C8.633,64.882 7.953,62.672 7.767,58.602C7.567,54.201 7.527,52.879 7.527,41.73C7.527,30.581 7.567,29.266 7.767,24.865C7.953,20.794 8.633,18.585 9.205,17.113C9.962,15.165 10.868,13.773 12.329,12.312C13.79,10.851 15.182,9.946 17.13,9.188C18.602,8.613 20.813,7.935 24.883,7.748C28.734,7.574 30.227,7.522 38.008,7.513L38.008,7.524ZM64.039,14.456C61.273,14.456 59.029,16.697 59.029,19.464C59.029,22.23 61.273,24.474 64.039,24.474C66.805,24.474 69.049,22.23 69.049,19.464C69.049,16.698 66.805,14.454 64.039,14.454L64.039,14.456ZM41.753,20.31C29.913,20.31 20.313,29.909 20.313,41.75C20.313,53.591 29.913,63.186 41.753,63.186C53.594,63.186 63.19,53.591 63.19,41.75C63.19,29.909 53.593,20.31 41.753,20.31ZM41.753,27.833C49.439,27.833 55.67,34.064 55.67,41.75C55.67,49.435 49.439,55.667 41.753,55.667C34.067,55.667 27.836,49.435 27.836,41.75C27.836,34.064 34.067,27.833 41.753,27.833Z" style="fill:white;fill-rule:nonzero;"/>
    </g>
</svg>
