<svg width="100%" height="100%" viewBox="0 0 132 32" version="1.1" xmlns="http://www.w3.org/2000/svg" style="fill-rule:evenodd;clip-rule:evenodd;stroke-linejoin:round;stroke-miterlimit:2;" class="icon">
    <g transform="matrix(0.269852,0,0,0.269852,-42.2361,-54.7635)">
        <path d="M617.376,321.64C612.416,321.64 608.026,320.85 604.206,319.27C600.386,317.69 597.116,315.56 594.396,312.88L589.716,321.1L585.996,321.1L585.996,296.44L590.316,296.44C590.916,299.4 591.916,302.14 593.316,304.66C594.716,307.18 596.506,309.37 598.686,311.23C600.866,313.09 603.416,314.53 606.336,315.55C609.256,316.57 612.536,317.08 616.176,317.08C620.416,317.08 624.036,316.41 627.036,315.07C630.036,313.73 632.326,311.8 633.906,309.28C635.486,306.76 636.276,303.7 636.276,300.1C636.276,296.58 635.426,293.62 633.726,291.22C632.026,288.82 629.776,286.75 626.976,285.01C624.176,283.27 621.096,281.67 617.736,280.21C614.376,278.75 611.016,277.22 607.656,275.62C604.296,274.02 601.216,272.15 598.416,270.01C595.616,267.87 593.366,265.26 591.666,262.18C589.966,259.1 589.116,255.34 589.116,250.9C589.116,246.46 590.206,242.58 592.386,239.26C594.566,235.94 597.536,233.35 601.296,231.49C605.056,229.63 609.296,228.7 614.016,228.7C617.856,228.7 621.446,229.32 624.786,230.56C628.126,231.8 631.076,233.64 633.636,236.08L638.376,228.7L642.096,228.7L642.096,253.36L637.776,253.36C636.976,248.88 635.506,245.17 633.366,242.23C631.226,239.29 628.596,237.09 625.476,235.63C622.356,234.17 618.916,233.44 615.156,233.44C609.436,233.44 605.126,234.71 602.226,237.25C599.326,239.79 597.876,243.14 597.876,247.3C597.876,250.46 598.726,253.13 600.426,255.31C602.126,257.49 604.376,259.39 607.176,261.01C609.976,262.63 613.046,264.15 616.386,265.57C619.726,266.99 623.066,268.52 626.406,270.16C629.746,271.8 632.816,273.73 635.616,275.95C638.416,278.17 640.666,280.89 642.366,284.11C644.066,287.33 644.916,291.26 644.916,295.9C644.916,301.1 643.796,305.63 641.556,309.49C639.316,313.35 636.136,316.34 632.016,318.46C627.896,320.58 623.016,321.64 617.376,321.64ZM446.736,315.52L459.996,315.52L459.996,319.9L422.136,319.9L422.136,315.52L435.396,315.52L435.396,234.28L422.136,234.28L422.136,229.9L461.736,229.9C467.776,229.9 473.046,230.79 477.546,232.57C482.046,234.35 485.536,237 488.016,240.52C490.496,244.04 491.736,248.4 491.736,253.6C491.736,258.8 490.576,263.013 488.256,266.241C485.936,269.468 482.546,271.818 478.086,273.291C475.03,274.3 471.509,274.963 467.523,275.281C471.232,275.557 474.332,276.24 476.826,277.33C480.166,278.79 482.686,280.73 484.386,283.15C486.086,285.57 487.266,288.23 487.926,291.13C488.586,294.03 488.976,296.93 489.096,299.83C489.216,302.73 489.356,305.39 489.516,307.81C489.676,310.23 490.113,312.17 490.827,313.63C491.542,315.09 492.865,315.82 494.796,315.82C496.076,315.82 497.136,315.69 497.976,315.43C498.816,315.17 499.636,314.86 500.436,314.5L501.936,318.64C500.976,319.16 499.476,319.6 497.436,319.96C495.396,320.32 493.296,320.5 491.136,320.5C487.656,320.5 484.946,319.894 483.006,318.683C481.066,317.472 479.656,315.838 478.776,313.781C477.896,311.724 477.346,309.417 477.126,306.86C476.906,304.303 476.776,301.66 476.736,298.93C476.696,296.2 476.536,293.556 476.256,290.999C475.976,288.443 475.356,286.136 474.396,284.079C473.436,282.022 471.906,280.388 469.806,279.177C467.706,277.965 464.816,277.36 461.136,277.36L446.736,277.36L446.736,315.52ZM156.516,319.9L156.516,315.52L167.376,315.52L167.376,234.28L156.516,234.28L156.516,229.9L189.576,229.9L189.576,234.28L178.776,234.28L178.776,315.52L197.359,315.52C202.09,315.52 205.826,315.06 208.566,314.14C211.306,313.22 213.326,311.82 214.626,309.94C215.926,308.06 216.766,305.7 217.146,302.86C217.526,300.02 217.716,296.7 217.716,292.9L222.156,292.9L222.156,319.9L156.516,319.9ZM276.217,292.72L268.296,315.52L279.276,315.52L279.276,319.9L252.876,319.9L252.876,315.52L263.316,315.52L294.276,228.16L298.776,228.16L329.076,315.52L339.216,315.52L339.216,319.9L304.416,319.9L304.416,315.52L315.876,315.52L308.513,292.72L276.217,292.72ZM380.916,229.9C388.156,229.9 394.066,231.02 398.646,233.26C403.226,235.5 406.616,238.61 408.816,242.59C411.016,246.57 412.116,251.16 412.116,256.36C412.116,261.56 411.016,266.14 408.816,270.1C406.616,274.06 403.226,277.16 398.646,279.4C394.066,281.64 388.156,282.76 380.916,282.76L367.776,282.76L367.776,315.52L378.576,315.52L378.576,319.9L345.516,319.9L345.516,315.52L356.376,315.52L356.376,234.28L345.516,234.28L345.516,229.9L380.916,229.9ZM530.976,275.56L530.976,315.52L550.116,315.52C555.596,315.52 559.806,314.69 562.746,313.03C565.686,311.37 567.716,308.87 568.836,305.53C569.956,302.19 570.516,297.98 570.516,292.9L574.896,292.9L574.896,319.9L508.716,319.9L508.716,315.52L519.576,315.52L519.576,234.28L508.716,234.28L508.716,229.9L573.756,229.9L573.756,254.5L569.316,254.5C569.316,250.22 568.796,246.57 567.756,243.55C566.716,240.53 564.896,238.23 562.296,236.65C559.696,235.07 556.056,234.28 551.376,234.28L530.976,234.28L530.976,271.18L538.116,271.18C540.396,271.18 542.336,270.87 543.936,270.25C545.536,269.63 546.766,268.56 547.626,267.04C548.486,265.52 548.916,263.42 548.916,260.74L553.356,260.74L553.356,286.48L548.916,286.48C548.916,283.8 548.486,281.66 547.626,280.06C546.766,278.46 545.536,277.31 543.936,276.61C542.336,275.91 540.396,275.56 538.116,275.56L530.976,275.56ZM277.739,288.34L307.099,288.34L292.956,244.54L277.739,288.34ZM367.776,278.44L380.916,278.44C383.796,278.44 386.346,277.8 388.566,276.52C390.786,275.24 392.676,273.53 394.236,271.39C395.796,269.25 396.976,266.88 397.776,264.28C398.576,261.68 398.976,259.04 398.976,256.36C398.976,253.68 398.576,251.04 397.776,248.44C396.976,245.84 395.796,243.47 394.236,241.33C392.676,239.19 390.786,237.48 388.566,236.2C386.346,234.92 383.796,234.28 380.916,234.28L367.776,234.28L367.776,278.44ZM446.736,273.04L446.736,234.28L461.736,234.28C465.576,234.28 468.836,234.98 471.516,236.38C474.196,237.78 476.246,239.91 477.666,242.77C479.086,245.63 479.796,249.24 479.796,253.6C479.796,257.96 479.086,261.58 477.666,264.46C476.246,267.34 474.196,269.49 471.516,270.91C468.836,272.33 465.576,273.04 461.736,273.04L446.736,273.04ZM233.616,261.28C233.616,257.96 233.486,255.3 233.226,253.3C232.966,251.3 232.636,249.59 232.236,248.17C231.836,246.75 231.426,245.3 231.006,243.82C230.586,242.34 230.216,240.48 229.896,238.24C229.856,237.8 229.826,237.41 229.806,237.07C229.786,236.73 229.776,236.38 229.776,236.02C229.776,233.66 230.336,231.85 231.456,230.59C232.576,229.33 234.016,228.7 235.776,228.7C237.536,228.7 238.976,229.33 240.096,230.59C241.216,231.85 241.776,233.66 241.776,236.02L241.776,237.07C241.776,237.41 241.736,237.8 241.656,238.24C241.336,240.48 240.966,242.34 240.546,243.82C240.126,245.3 239.716,246.75 239.316,248.17C238.916,249.59 238.586,251.3 238.326,253.3C238.066,255.3 237.936,257.96 237.936,261.28L233.616,261.28ZM546.996,219.7L531.876,210.88C531.236,210.48 530.726,209.95 530.346,209.29C529.966,208.63 529.766,207.91 529.746,207.13C529.726,206.35 529.896,205.64 530.256,205C530.656,204.32 531.216,203.79 531.936,203.41C532.656,203.03 533.466,202.88 534.366,202.96C535.266,203.04 536.136,203.5 536.976,204.34L549.696,216.76L546.996,219.7Z" style="fill:white;"/>
    </g>
</svg>
